<svg xmlns="http://www.w3.org/2000/svg" viewBox="0 0 27.2 28.7"><path d="M14 9.5c-2.7-.2-5 1.8-5.2 4.5-.2 2.7 1.8 5 4.5 5.2h.4c2.5 0 4.6-2 4.8-4.5.1-2.7-1.9-5-4.5-5.2zm-.7 8.9c-2.2-.2-3.9-2.1-3.8-4.4.2-2.1 1.9-3.8 4.1-3.8h.3c2.2.2 3.9 2.1 3.8 4.4-.2 2.2-2.1 4-4.4 3.8zm12-5.6c.1-.1.2-.3.1-.4l-.9-2.9c0-.2-.2-.3-.4-.3l-2.5-.1-1.3-1.6.4-2.5c0-.2-.1-.3-.2-.4L18 3.2c-.1-.1-.3-.1-.4.1L15.8 5l-2.1-.2-1.5-2c-.1-.1-.3-.2-.4-.1l-3 .7c-.2 0-.3.2-.3.4l-.1 2.4-1.6 1.3-2.4-.3c-.2-.1-.4 0-.4.2L2.5 10c-.1.1-.1.3.1.4l1.7 1.8-.3 2.2-2 1.5c-.1.1-.2.3-.1.4l.9 2.9c0 .2.2.3.4.3l2.5.1L7 21.2l-.4 2.5c0 .2.1.3.2.4l2.6 1.4c.1.1.3.1.4-.1l1.8-1.7 2.1.2 1.5 2c.1.1.2.2.3.2h.1l2.9-.9c.2 0 .3-.2.3-.4l.1-2.5 1.6-1.3 2.5.4c.2 0 .3-.1.4-.2l1.4-2.6c.1-.1.1-.3-.1-.4L23 16.4l.2-2.1 2.1-1.5zm-3 4l1.6 1.8-1.2 2.2-2.4-.4c-.1 0-.2 0-.3.1L18.1 22c-.1.1-.1.2-.1.3l-.1 2.4-2.4.7-1.4-1.9c-.1-.1-.2-.1-.3-.2l-2.4-.3c-.1 0-.2 0-.3.1l-1.8 1.6-2.2-1.2.4-2.4c0-.1 0-.2-.1-.3L6 18.9c-.1-.1-.2-.1-.3-.1l-2.4-.1-.7-2.4 1.9-1.4c.1-.1.1-.2.2-.3l.3-2.4c0-.1 0-.2-.1-.3l-1.6-1.8L4.5 8l2.4.4c.1 0 .2 0 .3-.1L9 6.7c.1-.1.1-.2.1-.3L9.2 4l2.4-.7L13 5.2c.1.1.2.1.3.2l2.4.3c.1 0 .2 0 .3-.1L17.8 4 20 5.2l-.4 2.4c0 .1 0 .2.1.3l1.5 1.9c.1.1.2.1.3.1l2.4.1.7 2.4-1.9 1.4c-.1.1-.1.2-.2.3l-.3 2.4c0 .1.1.2.1.3z" fill="#1ea5db"/></svg>