<svg xmlns="http://www.w3.org/2000/svg" viewBox="0 0 332.6 259"><g stroke-width="5" stroke-miterlimit="10"><path d="M235.7 108.4c0-13.4-3-26.4-9-38.7-5.7-11.8-13.9-22.3-24.4-31.4-10.4-9-22.5-16.1-35.9-21-13.9-5.1-28.6-7.7-43.8-7.7-15.2 0-29.9 2.6-43.8 7.7-13.4 4.9-25.5 12-35.9 21-10.4 9.1-18.6 19.6-24.4 31.4-6 12.2-9 25.2-9 38.7 0 16.3 4.6 32.5 13.4 46.7 8 13 19.3 24.3 32.9 33L53.3 244c-.1 1.8.9 3.5 2.5 4.4.7.4 1.5.6 2.3.6 1 0 1.9-.3 2.7-.9L120 207h2.6c15.2 0 29.9-2.6 43.8-7.7 13.4-4.9 25.5-12 35.9-21 10.4-9.1 18.6-19.6 24.4-31.4 6-12.1 9-25.1 9-38.5zm-113 89.1c-1.3 0-2.6 0-3.9-.1-1 0-2 .3-2.9.9l-52.5 36.4 2.4-48.9c.1-1.8-.8-3.4-2.3-4.3-27.6-16.7-44.1-44-44.1-73 0-49.1 46.4-89.1 103.4-89.1 57 0 103.4 40 103.4 89.1-.1 49-46.5 89-103.5 89z" fill="#1fa4da" stroke="#1fa4da"/><path d="M316.1 58.9c-4.7-9.7-11.4-18.3-20-25.7C278.7 18 255.5 9.6 230.9 9.6c-14.3 0-28.2 2.8-40.7 8.2 3.4 2 6.8 4.2 10 6.5 9.5-3.3 19.9-5.1 30.7-5.1 45.7 0 83 32 83 71.4 0 23.2-13.2 45.1-35.4 58.5-1.5.9-2.4 2.6-2.3 4.3l1.8 37.9-41.1-28.5c-.8-.6-1.8-.9-2.7-.9h-.2c-1.1 0-2.1.1-3.1.1h-1.6c-2.1 3.2-4.3 6.3-6.7 9.3 2.7.2 5.5.3 8.3.3h1.8l47.8 33.1c.8.6 1.8.9 2.7.9.8 0 1.6-.2 2.3-.6 1.6-.9 2.6-2.6 2.5-4.4l-2.2-44.8c11-7.1 20.1-16.3 26.5-26.8 7.2-11.7 11-25 11-38.4.2-11-2.3-21.7-7.2-31.7z" fill="#e63a29" stroke="#e63a29"/></g></svg>