<svg xmlns="http://www.w3.org/2000/svg" viewBox="0 0 1552.9 337.7"><path d="M39 31.2c0-3.6.1-6.4.2-8.4s.7-3.4 1.6-4.3c.9-.9 2.4-1.4 4.3-1.6 2-.2 4.8-.2 8.4-.2h71c11.4 0 20.1.2 26.3.7 6.1.5 10.6 2 13.4 4.7 2.8 2.7 4.5 6.8 5 12.4.5 5.6.8 13.7.8 24.1s-.3 18.5-.8 24.1c-.5 5.6-2.2 9.8-5 12.4-2.8 2.7-7.3 4.2-13.4 4.7-6.1.5-14.8.7-26.1.7l42.6 42.6c2 2 3.4 3.5 4.4 4.6 1 1.1 1.5 2.1 1.5 3.2 0 .8-.6 1.9-1.7 3.3s-2.5 2.9-4.1 4.4c-1.6 1.5-3.2 2.8-4.7 4-1.5 1.1-2.6 1.7-3.2 1.7-.9 0-1.9-.5-3.1-1.5-1.1-1-2.6-2.4-4.4-4.2l-58-58H60.8v51c0 2.7-.1 4.8-.2 6.3-.2 1.4-.6 2.5-1.3 3.2-.7.7-1.7 1.1-3.2 1.3-1.4.2-3.5.2-6.3.2-2.7 0-4.8-.1-6.3-.2-1.4-.1-2.5-.6-3.2-1.3-.7-.7-1.1-1.7-1.3-3.2-.2-1.4-.2-3.5-.2-6.3V31.2zm85.6 47.3c5.9 0 10.5-.1 13.7-.3 3.2-.2 5.5-1 6.9-2.3 1.4-1.3 2.3-3.3 2.6-5.9.3-2.7.5-6.5.5-11.5s-.2-8.8-.5-11.5c-.3-2.7-1.2-4.6-2.6-5.9-1.4-1.3-3.8-2-6.9-2.3-3.2-.2-7.7-.3-13.7-.3H60.8v40.1h63.8zm162 61.9c2.7 0 4.8.1 6.3.2 1.4.2 2.5.6 3.2 1.3.7.7 1.1 1.7 1.3 3.2.1 1.4.2 3.5.2 6.3 0 2.7-.1 4.8-.2 6.3-.2 1.4-.6 2.5-1.3 3.2-.7.7-1.7 1.1-3.2 1.3-1.4.2-3.5.2-6.3.2h-40.1c-9.7 0-17.9-.1-24.5-.3-6.6-.2-12.1-.9-16.4-1.9-4.3-1.1-7.7-2.8-10-5.1-2.4-2.4-4.1-5.7-5.1-10-1.1-4.3-1.7-9.8-1.9-16.4-.2-6.6-.3-14.8-.3-24.5s.1-17.9.3-24.5c.2-6.6.9-12.1 1.9-16.4 1.1-4.3 2.8-7.7 5.1-10 2.4-2.4 5.7-4.1 10-5.1 4.3-1.1 9.8-1.7 16.4-1.9 6.6-.2 14.8-.3 24.5-.3s17.9.1 24.5.3c6.6.2 12.1.9 16.4 1.9 4.3 1.1 7.7 2.7 10 5 2.4 2.3 4.1 5.4 5.1 9.4 1.1 4 1.7 9.1 1.9 15.2.2 6.1.3 13.7.3 22.6 0 3.6-.1 6.5-.2 8.4-.2 2-.7 3.4-1.6 4.3-.9.9-2.4 1.4-4.3 1.6-2 .2-4.8.2-8.4.2h-80.1c0 6.4.1 11.3.5 14.7.3 3.4 1.3 5.9 2.8 7.5 1.6 1.6 4.1 2.5 7.5 2.8 3.4.3 8.3.5 14.7.5h51zM283 93.1c0-6.4-.2-11.3-.5-14.7-.3-3.4-1.3-5.9-2.8-7.5-1.6-1.6-4.1-2.5-7.5-2.8-3.4-.3-8.3-.5-14.7-.5h-21.8c-6.4 0-11.3.2-14.7.5-3.4.3-5.9 1.3-7.5 2.8-1.6 1.6-2.5 4.1-2.8 7.5-.3 3.4-.5 8.3-.5 14.7H283zm114.7 47.3c3.2 0 5.6-.1 7.3-.2 1.7-.1 2.9-.6 3.8-1.5.8-.8 1.3-2.1 1.5-3.8.1-1.7.2-4.1.2-7.3s-.1-5.6-.2-7.3c-.2-1.7-.6-2.9-1.5-3.8-.8-.8-2.1-1.3-3.8-1.5-1.7-.1-4.1-.2-7.3-.2h-40.1c-8.6 0-15.3-.2-19.9-.6-4.6-.4-8-1.7-10.2-3.9-2.2-2.2-3.5-5.6-3.9-10.2-.4-4.6-.6-11.3-.6-19.9 0-8.6.2-15.3.6-19.9.4-4.6 1.7-8 3.9-10.2 2.2-2.2 5.6-3.5 10.2-3.9 4.6-.4 11.3-.6 19.9-.6h60.1c2.7 0 4.8.1 6.3.2 1.4.2 2.5.6 3.2 1.3.7.7 1.1 1.7 1.3 3.2.1 1.4.2 3.5.2 6.3 0 2.7-.1 4.8-.2 6.3-.2 1.4-.6 2.5-1.3 3.2-.7.7-1.7 1.1-3.2 1.3-1.4.2-3.5.2-6.3.2h-60.1c-3.2 0-5.6.1-7.3.2-1.7.2-2.9.6-3.8 1.5-.8.8-1.3 2.1-1.5 3.8-.2 1.7-.2 4.1-.2 7.3s.1 5.6.2 7.3c.1 1.7.6 2.9 1.5 3.8.8.8 2.1 1.3 3.8 1.5 1.7.2 4.1.2 7.3.2h40.1c8.6 0 15.3.2 19.9.6 4.6.4 8 1.7 10.2 3.9 2.2 2.2 3.5 5.6 3.9 10.2.4 4.6.6 11.3.6 19.9 0 8.6-.2 15.3-.6 19.9-.4 4.6-1.7 8-3.9 10.2-2.2 2.2-5.6 3.5-10.2 3.9-4.6.4-11.3.6-19.9.6H334c-2.7 0-4.8-.1-6.3-.2-1.4-.1-2.5-.6-3.2-1.3-.7-.7-1.1-1.7-1.3-3.2-.2-1.4-.2-3.5-.2-6.3 0-2.7.1-4.8.2-6.3.1-1.4.6-2.5 1.3-3.2.7-.7 1.7-1.1 3.2-1.3 1.4-.1 3.5-.2 6.3-.2h63.7zM476 67.6h-21.8c-2.7 0-4.8-.1-6.3-.2-1.4-.1-2.5-.6-3.2-1.3-.7-.7-1.1-1.7-1.3-3.2-.2-1.4-.2-3.5-.2-6.3 0-2.7.1-4.8.2-6.3.1-1.4.6-2.5 1.3-3.2.7-.7 1.7-1.1 3.2-1.3 1.4-.1 3.5-.2 6.3-.2H476V27.5c0-2.7.1-4.8.2-6.3.1-1.4.6-2.5 1.3-3.2.7-.7 1.7-1.1 3.2-1.3 1.4-.2 3.5-.2 6.3-.2 2.7 0 4.8.1 6.3.2 1.4.2 2.5.6 3.2 1.3.7.7 1.1 1.7 1.3 3.2.1 1.4.2 3.5.2 6.3v18.2h21.8c2.7 0 4.8.1 6.3.2 1.4.2 2.5.6 3.2 1.3.7.7 1.1 1.7 1.3 3.2.2 1.4.2 3.5.2 6.3 0 2.7-.1 4.8-.2 6.3-.2 1.4-.6 2.5-1.3 3.2-.7.7-1.7 1.1-3.2 1.3-1.4.2-3.5.2-6.3.2H498v83.8c0 2.7-.1 4.8-.2 6.3-.2 1.4-.6 2.5-1.3 3.2-.7.7-1.7 1.1-3.2 1.3-1.4.2-3.5.2-6.3.2-2.7 0-4.8-.1-6.3-.2-1.4-.1-2.5-.6-3.2-1.3-.7-.7-1.1-1.7-1.3-3.2-.2-1.4-.2-3.5-.2-6.3V67.6zm160.2 72.8c2.7 0 4.8.1 6.3.2 1.4.2 2.5.6 3.2 1.3.7.7 1.1 1.7 1.3 3.2.1 1.4.2 3.5.2 6.3 0 2.7-.1 4.8-.2 6.3-.2 1.4-.6 2.5-1.3 3.2-.7.7-1.7 1.1-3.2 1.3-1.4.2-3.5.2-6.3.2h-32.8c-9.7 0-17.9-.1-24.5-.3-6.6-.2-12.1-.9-16.4-1.9-4.3-1.1-7.7-2.8-10-5.1-2.4-2.4-4.1-5.7-5.1-10-1.1-4.3-1.7-9.8-1.9-16.4-.2-6.6-.3-14.8-.3-24.5s.1-17.9.3-24.5c.2-6.6.9-12.1 1.9-16.4 1.1-4.3 2.8-7.7 5.1-10 2.4-2.4 5.7-4.1 10-5.1 4.3-1.1 9.8-1.7 16.4-1.9 6.6-.2 14.8-.3 24.5-.3h32.8c2.7 0 4.8.1 6.3.2 1.4.2 2.5.6 3.2 1.3.7.7 1.1 1.7 1.3 3.2.1 1.4.2 3.5.2 6.3 0 2.7-.1 4.8-.2 6.3-.2 1.4-.6 2.5-1.3 3.2-.7.7-1.7 1.1-3.2 1.3-1.4.2-3.5.2-6.3.2h-32.8c-9.1 0-16.1.2-21.1.6-4.9.4-8.5 1.7-10.8 4-2.3 2.3-3.6 5.9-4 10.8-.4 4.9-.6 11.9-.6 21.1 0 9.1.2 16.1.6 21.1.4 4.9 1.7 8.5 4 10.8 2.3 2.3 5.9 3.6 10.8 4 4.9.4 11.9.6 21.1.6h32.8zm87.4-94.7c9.7 0 17.9.1 24.5.3 6.6.2 12.1.9 16.4 1.9 4.3 1.1 7.7 2.8 10 5.1 2.4 2.4 4.1 5.7 5.1 10 1.1 4.3 1.7 9.8 1.9 16.4.2 6.6.3 14.8.3 24.5s-.1 17.9-.3 24.5c-.2 6.6-.9 12.1-1.9 16.4-1.1 4.3-2.8 7.7-5.1 10-2.4 2.4-5.7 4.1-10 5.1-4.3 1.1-9.8 1.7-16.4 1.9-6.6.2-14.8.3-24.5.3s-17.9-.1-24.5-.3c-6.6-.2-12.1-.9-16.4-1.9-4.3-1.1-7.7-2.8-10-5.1-2.4-2.4-4.1-5.7-5.1-10-1.1-4.3-1.7-9.8-1.9-16.4-.2-6.6-.3-14.8-.3-24.5s.1-17.9.3-24.5c.2-6.6.9-12.1 1.9-16.4 1.1-4.3 2.8-7.7 5.1-10 2.4-2.4 5.7-4.1 10-5.1 4.3-1.1 9.8-1.7 16.4-1.9 6.6-.2 14.8-.3 24.5-.3zM760 104c0-9.1-.2-16.1-.6-21.1-.4-4.9-1.7-8.5-4-10.8-2.3-2.3-5.9-3.6-10.8-4-4.9-.4-11.9-.6-21.1-.6-9.1 0-16.1.2-21.1.6-4.9.4-8.5 1.7-10.8 4-2.3 2.3-3.6 5.9-4 10.8-.4 4.9-.6 11.9-.6 21.1 0 9.1.2 16.1.6 21.1.4 4.9 1.7 8.5 4 10.8 2.3 2.3 5.9 3.6 10.8 4 4.9.4 11.9.6 21.1.6 9.1 0 16.1-.2 21.1-.6 4.9-.4 8.5-1.7 10.8-4 2.3-2.3 3.6-5.9 4-10.8.4-5 .6-12 .6-21.1zm41-43.7c0-3.6.1-6.4.2-8.4.2-2 .7-3.4 1.6-4.3.9-.9 2.4-1.4 4.3-1.6 2-.1 4.8-.2 8.4-.2h102c8.5 0 15.6.1 21.4.2 5.8.2 10.5.7 14.3 1.7 3.8 1 6.7 2.5 8.8 4.6 2 2 3.6 5 4.6 8.8 1 3.8 1.6 8.6 1.7 14.5.1 5.8.2 12.9.2 21.3v54.6c0 2.7-.1 4.8-.2 6.3-.2 1.4-.6 2.5-1.3 3.2-.7.7-1.7 1.1-3.2 1.3-1.4.2-3.5.2-6.3.2-2.7 0-4.8-.1-6.3-.2-1.4-.1-2.5-.6-3.2-1.3-.7-.7-1.1-1.7-1.3-3.2-.2-1.4-.2-3.5-.2-6.3V96.7c0-7.3-.2-12.9-.5-16.8-.3-3.9-1.4-6.8-3.2-8.6-1.8-1.8-4.7-2.9-8.6-3.2-3.9-.3-9.6-.5-16.8-.5h-21.8v83.8c0 2.7-.1 4.8-.2 6.3-.2 1.4-.6 2.5-1.3 3.2-.7.7-1.7 1.1-3.2 1.3-1.4.2-3.5.2-6.3.2-2.7 0-4.8-.1-6.3-.2-1.4-.1-2.5-.6-3.2-1.3-.7-.7-1.1-1.7-1.3-3.2-.2-1.4-.2-3.5-.2-6.3V67.6h-51v83.8c0 2.7-.1 4.8-.2 6.3-.2 1.4-.6 2.5-1.3 3.2-.7.7-1.7 1.1-3.2 1.3-1.4.2-3.5.2-6.3.2-2.7 0-4.8-.1-6.3-.2-1.4-.1-2.5-.6-3.2-1.3-.7-.7-1.1-1.7-1.3-3.2-.2-1.4-.2-3.5-.2-6.3V60.3zm186.6 0c0-3.6.1-6.4.2-8.4.2-2 .7-3.4 1.6-4.3.9-.9 2.4-1.4 4.3-1.6 2-.1 4.8-.2 8.4-.2h102c8.5 0 15.6.1 21.4.2 5.8.2 10.5.7 14.3 1.7 3.8 1 6.7 2.5 8.8 4.6 2 2 3.6 5 4.6 8.8 1 3.8 1.6 8.6 1.7 14.5.1 5.8.2 12.9.2 21.3v54.6c0 2.7-.1 4.8-.2 6.3-.2 1.4-.6 2.5-1.3 3.2-.7.7-1.7 1.1-3.2 1.3-1.4.2-3.5.2-6.3.2s-4.8-.1-6.3-.2c-1.4-.1-2.5-.6-3.2-1.3-.7-.7-1.1-1.7-1.3-3.2-.2-1.4-.2-3.5-.2-6.3V96.7c0-7.3-.2-12.9-.5-16.8-.3-3.9-1.4-6.8-3.2-8.6-1.8-1.8-4.7-2.9-8.6-3.2-3.9-.3-9.6-.5-16.8-.5h-21.8v83.8c0 2.7-.1 4.8-.2 6.3-.2 1.4-.6 2.5-1.3 3.2-.7.7-1.7 1.1-3.2 1.3-1.4.2-3.5.2-6.3.2-2.7 0-4.8-.1-6.3-.2-1.4-.1-2.5-.6-3.2-1.3-.7-.7-1.1-1.7-1.3-3.2-.2-1.4-.2-3.5-.2-6.3V67.6h-51v83.8c0 2.7-.1 4.8-.2 6.3-.2 1.4-.6 2.5-1.3 3.2-.7.7-1.7 1.1-3.2 1.3-1.4.2-3.5.2-6.3.2-2.7 0-4.8-.1-6.3-.2-1.4-.1-2.5-.6-3.2-1.3-.7-.7-1.1-1.7-1.3-3.2-.2-1.4-.2-3.5-.2-6.3V60.3zm-162.3 135h4" fill="#e63a29"/><g stroke-width="5" stroke-miterlimit="10"><path d="M1439.1 146.7c0-13.4-3-26.4-9-38.7-5.7-11.8-13.9-22.3-24.4-31.4-10.4-9-22.5-16.1-35.9-21-13.9-5.1-28.6-7.7-43.8-7.7-15.2 0-29.9 2.6-43.8 7.7-13.4 4.9-25.5 12-35.9 21-10.4 9.1-18.6 19.6-24.4 31.4-6 12.2-9 25.2-9 38.7 0 16.3 4.6 32.5 13.4 46.7 8 13 19.3 24.3 32.9 33l-2.7 55.9c-.1 1.8.9 3.5 2.5 4.4.7.4 1.5.6 2.3.6 1 0 1.9-.3 2.7-.9l59.2-41.1h2.6c15.2 0 29.9-2.6 43.8-7.7 13.4-4.9 25.5-12 35.9-21 10.4-9.1 18.6-19.6 24.4-31.4 6.1-12.1 9.2-25.1 9.2-38.5zM1326 235.8c-1.3 0-2.6 0-3.9-.1-1 0-2 .3-2.9.9l-52.5 36.4 2.4-48.9c.1-1.8-.8-3.4-2.3-4.3-27.6-16.7-44.1-44-44.1-73 0-49.1 46.4-89.1 103.4-89.1 57 0 103.4 40 103.4 89.1-.1 49-46.4 89-103.5 89z" fill="#1fa4da" stroke="#1fa4da"/><path d="M1519.4 97.2c-4.7-9.7-11.4-18.3-20-25.7-17.4-15.2-40.6-23.5-65.2-23.5-14.3 0-28.2 2.8-40.7 8.2 3.4 2 6.8 4.2 10 6.5 9.5-3.3 19.9-5.1 30.7-5.1 45.7 0 83 32 83 71.4 0 23.2-13.2 45.1-35.4 58.5-1.5.9-2.4 2.6-2.3 4.3l1.8 37.9-41.1-28.5c-.8-.6-1.8-.9-2.7-.9h-.2c-1.1 0-2.1.1-3.1.1h-1.6c-2.1 3.2-4.3 6.3-6.7 9.3 2.7.2 5.5.3 8.3.3h1.8l47.8 33.1c.8.6 1.8.9 2.7.9.8 0 1.6-.2 2.3-.6 1.6-.9 2.6-2.6 2.5-4.4l-2.2-44.8c11-7.1 20.1-16.3 26.5-26.8 7.2-11.7 11-25 11-38.4.2-11.1-2.3-21.7-7.2-31.8z" fill="#e63a29" stroke="#e63a29"/></g><text transform="translate(304.943 289.451)" font-size="101.988" font-family="Lato-Bold" fill="#1fa4da">Message Exchange</text></svg>