<svg version="1.1" id="Layer_1" xmlns="http://www.w3.org/2000/svg" x="0" y="0" viewBox="0 0 108 80" xml:space="preserve"><style>.st0{fill:#fff}.st1{fill:#44a5ab}</style><path class="st0" d="M52.9 40.5c0-.9-.8-1.6-1.7-1.6-.9 0-1.7.7-1.7 1.6 0 .5.3 1 .7 1.3l-.4 3.6h2.9l-.4-3.6c.4-.2.6-.7.6-1.3zm-1.7-10.4h-.1c-1.2 0-2.2.6-2.8 1.7-.5.9-.5 2-.5 3.4v.3h6.8c0-1.6 0-2.8-.5-3.7-.6-1.1-1.7-1.7-2.9-1.7z"/><path class="st0" d="M63.6 22.6c-4.5 0-8.7-.7-12.4-2.1-3.7 1.4-7.8 2.1-12.4 2.1-1.4 0-2.9-.1-4.3-.2v18.5c0 4.8 2.6 9.4 7.6 13.8 3.4 2.9 7 5 9.1 6.1 2.1-1.1 5.7-3.2 9.1-6.1 5-4.4 7.6-9.1 7.6-13.8V22.4c-1.4.1-2.9.2-4.3.2zm-4.4 25.6c0 .3-.2.5-.5.5H43.8c-.3 0-.5-.2-.5-.5V36c0-.3.2-.5.5-.5h1.6v-2.6c.1-1.4.8-2.8 1.9-3.8 1.1-1 2.5-1.5 4-1.5h.5c2.8.2 5.2 2.5 5.4 5.2v2.6h1.6c.3 0 .5.2.5.5v12.3z"/><path class="st0" d="M71.1 17.2c-3.4.6-11.9 1.7-19.3-1.6-.3-.1-.7-.1-1 0-7.4 3.3-16 2.2-19.3 1.6-.8-.1-1.5.4-1.5 1.2v22.4c0 14.6 17.5 23.3 20.8 24.8.3.2.7.2 1 0 3.3-1.5 20.8-10.2 20.8-24.8V18.5c0-.8-.7-1.4-1.5-1.3zm-1 23.7c0 5.4-2.8 10.7-8.4 15.5-3.7 3.3-7.8 5.6-10 6.6l-.5.2-.4-.2c-2.1-1-6.2-3.3-10.1-6.7-5.5-4.8-8.3-10.1-8.3-15.5v-21l1.2.2c1.8.2 3.6.3 5.3.3 4.4 0 8.5-.7 11.9-2.1l.4-.2.4.2c3.5 1.4 7.5 2.1 11.9 2.1 1.7 0 3.5-.1 5.3-.3l1.2-.2v21.1z"/><path class="st0" d="M40.7 25.9h20.5v24H40.7z"/><path class="st1" d="M57.5 36.5H45.1c-1.3 0-2.4 1.1-2.4 2.4v7.6c0 1.3 1.1 2.4 2.4 2.4h12.4c1.3 0 2.4-1.1 2.4-2.4v-7.6c0-1.3-1-2.4-2.4-2.4zm-11.8 2.7c-.1 0-.2.1-.2.2v6.9c0 .3-.3.6-.6.6s-.6-.3-.6-.6v-6.9c0-.7.6-1.3 1.3-1.3.3 0 .6.3.6.6.1.3-.2.5-.5.5zm6.6 3.6v2.1c0 .6-.5 1-1 1-.6 0-1-.5-1-1v-2.1c-.4-.3-.7-.8-.7-1.4 0-1 .8-1.7 1.7-1.7.9 0 1.7.8 1.7 1.7 0 .6-.2 1.1-.7 1.4zM48 32.9c0-1.9 1.5-3.4 3.4-3.4s3.4 1.5 3.4 3.4v2.7h2.7v-2.7c0-3.4-2.7-6.1-6.1-6.1-3.4 0-6.1 2.7-6.1 6.1v2.7H48v-2.7z"/><path class="st1" d="M44 38h3v10h-3z"/></svg>