<svg version="1.1" id="Layer_1" xmlns="http://www.w3.org/2000/svg" x="0" y="0" viewBox="0 0 108 80" xml:space="preserve"><style>.st1{fill:#fff}</style><path fill="#44a5ab" d="M42 26h23v24H42z"/><path class="st1" d="M55 40.7c0-.9-.8-1.6-1.7-1.6-.9 0-1.7.7-1.7 1.6 0 .5.3 1 .7 1.3l-.4 3.6h2.9l-.5-3.6c.4-.3.7-.8.7-1.3zm-1.7-10.4h-.1c-1.2 0-2.2.6-2.8 1.7-.5.9-.5 2-.5 3.4v.3h6.8c0-1.6 0-2.8-.5-3.7-.7-1.2-1.7-1.7-2.9-1.7z"/><path class="st1" d="M65.6 22.7c-4.5 0-8.7-.7-12.4-2.1-3.7 1.4-7.8 2.1-12.4 2.1-1.4 0-2.9-.1-4.3-.2V41c0 4.8 2.6 9.4 7.6 13.8 3.4 2.9 7 5 9.1 6.1 2.1-1.1 5.7-3.2 9.1-6.1 5-4.4 7.6-9.1 7.6-13.8V22.5c-1.4.2-2.8.2-4.3.2zm-4.3 25.7c0 .3-.2.5-.5.5h-15c-.3 0-.5-.2-.5-.5V36.1c0-.3.2-.5.5-.5h1.6V33c.1-1.4.8-2.8 1.9-3.8 1.1-1 2.5-1.5 4-1.5h.5c2.8.2 5.2 2.5 5.4 5.2v2.6h1.6c.3 0 .5.2.5.5v12.4z"/><path class="st1" d="M73.1 17.4c-3.4.6-11.9 1.7-19.3-1.6-.3-.1-.7-.1-1 0-7.4 3.3-16 2.2-19.3 1.6-.8-.1-1.5.4-1.5 1.2V41c0 14.6 17.5 23.3 20.8 24.8.3.2.7.2 1 0 3.3-1.5 20.8-10.2 20.8-24.8V18.6c0-.8-.7-1.4-1.5-1.2zm-.9 23.7c0 5.4-2.8 10.7-8.4 15.5-3.8 3.3-7.9 5.6-10.1 6.7l-.5.2-.5-.2c-2.1-1-6.2-3.3-10.1-6.7-5.5-4.8-8.3-10.1-8.3-15.5V20l1.2.2c1.8.2 3.6.3 5.3.3 4.4 0 8.5-.7 11.9-2.1l.4-.2.4.2c3.5 1.4 7.5 2.1 11.9 2.1 1.7 0 3.5-.1 5.3-.3l1.2-.2v21.1z"/></svg>