<svg version="1.1" id="Layer_1" xmlns="http://www.w3.org/2000/svg" x="0" y="0" viewBox="0 0 27.2 28.7" xml:space="preserve"><style>.st0{fill:none}.st1{fill:#58595b}</style><path class="st0" d="M16.8 21.7c0-3.5 2.6-3.5 2.6-7.3 0-3.2-2.6-5.8-5.7-5.8-3.2 0-5.7 2.6-5.7 5.8 0 3.8 2.6 3.8 2.6 7.3"/><path class="st1" d="M16.8 22.2c-.2 0-.4-.2-.4-.4 0-1.9.7-2.8 1.4-3.8.7-.9 1.3-1.8 1.3-3.5 0-2.9-2.4-5.3-5.3-5.3s-5.3 2.4-5.3 5.3c0 1.8.6 2.6 1.3 3.5.7.9 1.4 1.9 1.4 3.8 0 .2-.2.4-.4.4s-.4-.2-.4-.4c0-1.6-.6-2.4-1.2-3.3-.7-.9-1.4-2-1.4-4.1 0-3.2 2.5-5.9 5.7-6.2h1.1c3.1.3 5.6 3 5.6 6.2 0 2.1-.8 3.1-1.4 4.1-.6.9-1.2 1.7-1.2 3.3-.4.2-.6.4-.8.4z"/><path class="st0" d="M13.7 10.6c-2.2 0-4 1.8-4 4"/><path class="st1" d="M9.6 15.1c-.2 0-.4-.2-.4-.4 0-2.5 2-4.5 4.5-4.5.2 0 .4.2.4.4s-.2.4-.4.4c-2 0-3.6 1.6-3.6 3.6 0 .3-.2.5-.5.5zm7.3 9h-6.4c-.2 0-.4-.2-.4-.4s.2-.4.4-.4h6.4c.2 0 .4.2.4.4s-.2.4-.4.4zm-.9 1.7h-4.7c-.2 0-.4-.2-.4-.4s.2-.4.4-.4H16c.2 0 .4.2.4.4.1.2-.1.4-.4.4zm-1 1.5h-2.7c-.2 0-.4-.2-.4-.4s.2-.4.4-.4H15c.2 0 .4.2.4.4.1.2-.1.4-.4.4zm10.4-12.5h-3.5c-.2 0-.4-.2-.4-.4s.2-.4.4-.4h3.5c.2 0 .4.2.4.4s-.1.4-.4.4zm-5-5.8c-.1 0-.2 0-.3-.1-.2-.2-.2-.5 0-.6l2.5-2.5c.2-.2.5-.2.6 0 .2.2.2.5 0 .6l-2.5 2.5c-.1.1-.2.1-.3.1zm2.5 13.9c-.1 0-.2 0-.3-.1l-2.5-2.5c-.2-.2-.2-.5 0-.6.2-.2.5-.2.6 0l2.5 2.5c.2.2.2.5 0 .6-.1.1-.2.1-.3.1zM5.4 14.8H1.9c-.2 0-.4-.2-.4-.4s.2-.4.4-.4h3.5c.2 0 .4.2.4.4s-.2.4-.4.4zm8.2-8.7c-.2 0-.4-.2-.4-.4V2.2c0-.2.2-.4.4-.4s.4.2.4.4v3.5c.1.2-.1.4-.4.4zM6.9 9c-.1 0-.2 0-.3-.1L4.1 6.4c-.2-.2-.2-.4 0-.6.2-.2.5-.2.6 0l2.5 2.5c.2.2.2.5 0 .6-.1.1-.2.1-.3.1zM4.4 22.9c-.1 0-.2 0-.3-.1-.2-.2-.2-.5 0-.6l2.5-2.5c.2-.2.5-.2.6 0 .2.2.2.5 0 .6l-2.5 2.5c-.1.1-.2.1-.3.1z"/></svg>